<svg id="Layer_1" data-name="Layer 1" xmlns="http://www.w3.org/2000/svg" viewBox="0 0 361.77 334.92"><defs><style>.cls-1,.cls-2,.cls-3{stroke:#000;stroke-miterlimit:10;}.cls-2,.cls-3{fill:#fff;}.cls-2{opacity:0.3;}.cls-3{opacity:0.6;}</style></defs><path class="cls-1" d="M228.33,20.39l0,.05a162,162,0,0,0-96.64-.05H0L41.45,91.92A161.06,161.06,0,0,0,114.14,321V347H246V320.9A161.07,161.07,0,0,0,318.48,92L354,30.75l5.55-9.57.48-.79Zm-48.4,3.9a149.66,149.66,0,0,1,42.58,6.15l-.17.31-.45.76-5.57,9.6-.43.74-5.56,9.62-.41.68-5.6,9.67-.38.67-5.62,9.69-.37.64-5.62,9.72-.36.6-5.65,9.76-.33.58-5.65,9.76-.34.56-.33-.56L174,93.5l-.35-.6L168,83.16l-.34-.62-5.63-9.72-.38-.64-5.6-9.67-.4-.69-5.6-9.65-.41-.7-5.56-9.64-.43-.72-5.55-9.59-.45-.77-.2-.34A149,149,0,0,1,179.93,24.29ZM114.14,308.6A149.85,149.85,0,0,1,48,103.17L84,165.38l.24.4,23.76,41,.19.31,5.82,10,.12.21ZM329.68,174.06A149.74,149.74,0,0,1,246,308.47V217.1L312,103.31A149.23,149.23,0,0,1,329.68,174.06Zm11.9-142.54L336,41.11l-.43.74L330,51.47l-.41.72L324,61.82l-.39.69L318,72.18l-.36.65-5.46,9.42-.17.29-.36.62L306,92.9l-.1.17-.24.41L300,103.24l-.35.58L294,113.59l-.31.55L288,124l-.29.52-5.7,9.84-.3.5L276,144.67l-.25.46L270,155l-.24.41h0L264,165.38l-.23.4-5.77,10-.2.36-5.79,10-.21.32-5.79,10-.19.33-5.82,10-.17.29-5.53,9.84-.14.22v118H126v-118h-.13v-.25l-5.69-9.81-.15-.29-5.83-10-.19-.33-5.78-10-.21-.32-5.79-10-.21-.36-5.77-10-.22-.4-5.77-9.93h0L90,155l-5.74-9.92-.26-.44-5.72-9.88-.27-.48-5.72-9.84L72,124l-5.69-9.82-.31-.54-5.67-9.79-.34-.56-5.65-9.76L54,92.93l0,0-5.65-9.74-.6-1-5.39-9.31L42,72.18l-5.62-9.69-.4-.67L30.4,52.17l-.41-.7-5.58-9.62L24,41.11l-5.56-9.6L18,30.75H125.72l.43.76,1.3,2.25,4.26,7.35,42.31,73,6,10.34.3-.52,5.69-9.81,42.31-73,4.22-7.3,1.34-2.3.43-.76h47.89l-.45.77-5.56,9.59-.41.74-1.15,2-4.44,7.63-.41.7-.82,1.44-4.76,8.21-.4.67-5.61,9.69-.38.64h0l-5.62,9.71-.36.62-5.65,9.74-.34.58v0l-5.64,9.74-.34.56-5.67,9.79-.31.55L228.18,124l-.31.52-5.71,9.84-.27.48-5.72,9.88-.26.44L210.16,155l-.24.42-5.76,9.93-.22.4,6,10.29.22-.33,5.79-10L277.13,60.12l5.7-9.86,5.31-9.15,5.57-9.6.41-.76H342Z" transform="translate(0.87 -12.54)"/><path class="cls-2" d="M329.68,174.06A149.74,149.74,0,0,1,246,308.47V217.1L312,103.31A149.23,149.23,0,0,1,329.68,174.06Z" transform="translate(0.87 -12.54)"/><path class="cls-2" d="M114.14,217.36V308.6A149.85,149.85,0,0,1,48,103.17L84,165.38l.24.4,23.76,41,.19.31,5.82,10Z" transform="translate(0.87 -12.54)"/><path class="cls-2" d="M222.51,30.44l-.17.31-.45.76-5.57,9.6-.43.74-5.56,9.62-.41.68-5.6,9.67-.38.67-5.62,9.69-.37.64-5.62,9.72-.36.6-5.65,9.76-.33.58-5.65,9.76-.34.56-.33-.56L174,93.5l-.35-.6L168,83.16l-.34-.62-5.63-9.72-.38-.64-5.6-9.67-.4-.69-5.6-9.65-.41-.7-5.56-9.64-.43-.72-5.55-9.59-.45-.77-.2-.34a150.41,150.41,0,0,1,85,0Z" transform="translate(0.87 -12.54)"/><polygon class="cls-3" points="342.9 18.21 342.45 18.98 336.9 28.57 336.47 29.31 330.89 38.93 330.48 39.65 324.89 49.28 324.5 49.97 318.88 59.64 318.52 60.29 313.06 69.71 312.89 70 312.53 70.62 306.89 80.36 306.79 80.53 306.55 80.94 300.9 90.7 300.55 91.28 294.89 101.05 294.58 101.6 288.89 111.41 288.6 111.93 282.9 121.77 282.6 122.27 276.88 132.13 276.63 132.59 270.89 142.49 270.65 142.9 270.65 142.91 264.88 152.84 264.65 153.24 258.88 163.2 258.68 163.56 252.89 173.56 252.68 173.88 246.89 183.9 246.7 184.23 240.88 194.26 240.71 194.55 235.18 204.39 235.04 204.61 235.04 322.59 126.84 322.59 126.84 204.61 126.71 204.61 126.71 204.36 121.02 194.55 120.87 194.26 115.04 184.23 114.85 183.9 109.07 173.88 108.86 173.56 103.07 163.56 102.86 163.2 97.09 153.24 96.87 152.84 91.1 142.91 91.1 142.9 90.86 142.49 85.12 132.57 84.86 132.13 79.14 122.25 78.87 121.77 73.15 111.93 72.86 111.41 67.17 101.59 66.86 101.05 61.19 91.26 60.85 90.7 55.2 80.94 54.89 80.39 54.87 80.36 49.22 70.62 48.62 69.59 43.23 60.28 42.87 59.64 37.25 49.95 36.85 49.28 31.27 39.63 30.86 38.93 25.28 29.31 24.86 28.57 19.3 18.97 18.85 18.21 126.59 18.21 127.02 18.97 128.32 21.22 132.58 28.57 174.89 101.59 180.87 111.93 181.17 111.41 186.86 101.6 229.17 28.57 233.39 21.27 234.73 18.97 235.16 18.21 283.05 18.21 282.6 18.98 277.04 28.57 276.63 29.31 275.48 31.3 271.04 38.93 270.63 39.63 269.81 41.07 265.05 49.28 264.65 49.95 259.04 59.64 258.66 60.28 258.66 60.29 253.04 70 252.68 70.62 247.03 80.36 246.69 80.94 246.69 80.96 241.05 90.7 240.71 91.26 235.04 101.05 234.73 101.6 229.05 111.41 228.74 111.93 223.03 121.77 222.76 122.25 217.04 132.13 216.78 132.57 211.03 142.49 210.79 142.91 205.03 152.84 204.81 153.24 210.77 163.53 210.99 163.2 216.78 153.24 278 47.58 283.7 37.72 289.01 28.57 294.58 18.97 294.99 18.21 342.9 18.21"/></svg>