<?xml version="1.0" encoding="utf-8"?>
<!-- Generator: Adobe Illustrator 25.2.3, SVG Export Plug-In . SVG Version: 6.00 Build 0)  -->
<svg version="1.1" id="Layer_1" xmlns="http://www.w3.org/2000/svg" xmlns:xlink="http://www.w3.org/1999/xlink" x="0px" y="0px"
	 viewBox="0 0 269.9 81.9" style="enable-background:new 0 0 269.9 81.9;" xml:space="preserve">
<style type="text/css">
	.st0{fill:#00583D;}
	.st1{fill:#BCAA7C;}
</style>
<g id="Layer_2_1_">
	<g id="Layer_1-2">
		<path class="st0" d="M20.5,42.5c-0.7,5.7-0.9,11.5-0.7,17.3c-3.1-5.1-4.6-11-4.3-17h-0.9c-0.2,0-0.3-0.1-0.3-0.3l-1.8,0.1
			c-0.1,0-0.3-0.1-0.3-0.2c0,0,0-0.1,0-0.1l1.5-4.5c0-0.2,0.2-0.3,0.4-0.3l1,0.1c0.1-0.2,0.2-0.3,0.4-0.3h0.9c1.7-6.4,5-12.2,9.5-17
			C24,26,22.5,31.8,21.3,37.7l1.3,0.5l12.6-0.6c0.2,0,0.3-0.1,0.4-0.3l0,0c0.8-4.6,1.8-9.6,2.8-14.2c0.1-0.2,0-0.4-0.2-0.6
			c-1.2-1.5-2.4-2.9-3.6-4.4c-0.1-0.2-0.4-0.3-0.6-0.3c-7.2-0.4-14.4-0.7-21.7-1c-0.3,0-0.5,0.1-0.7,0.2c-1.8,1.4-3.7,2.9-5.5,4.3
			C6,21.5,5.9,21.8,5.8,22C3.2,34.6,1.3,47.3,0,60c0,0.2,0,0.5,0.2,0.7c1.3,1.5,2.7,2.9,4.1,4.3c0.2,0.2,0.6,0.1,0.6,0.1h20.9
			c0.3-0.1,0.5-0.2,0.7-0.3c1.6-1.5,4.1-4.1,5.8-5.6c0.2-0.3,0.3-0.7,0.3-1.1c0.4-3.2,0.7-6.4,1.2-9.6c0.1-0.4,0.1-0.8,0.2-1.2
			c0.2-1.5,0.5-3.1,0.7-4.6c0-0.3-0.2-0.6-0.5-0.6c0,0,0,0-0.1,0L22,42L20.5,42.5z"/>
		<polygon class="st1" points="58.1,0 45.1,81.9 46.5,81.9 59.5,0 		"/>
		<path class="st0" d="M79.3,50.2c-5.8,0-10.4-4.1-10.4-10.8c0-5.5,3.2-10.1,9-10.1c3.2,0,6.3,1.2,6.3,5h1.3l1.1-5.6
			c-2.7-0.5-5.5-0.8-8.2-0.9c-8.4,0-13.6,6.1-13.6,13c0,7.2,5.6,12.4,12.9,12.4c3.7,0.1,7.2-1.5,9.4-4.5l-0.6-0.8
			C84.5,49.3,82,50.2,79.3,50.2z"/>
		<path class="st0" d="M156.3,48.9L151,41v-0.5c1.8-1,4.7-3.3,4.7-6.5s-2.5-5.9-9-5.9h-9.3v1c2.7,0.5,2.9,0.9,2.9,2.7v17.4
			c0,1.2-0.9,2.2-2.5,2.3c-1.2-0.2-1.9-0.7-2.7-2.8L127,27.8l-1.8,0.4l-8.6,21.5c-0.3,0.8-1.1,1.5-1.9,1.6l-3.1-0.3
			c0.1-0.7,0.2-1.3,0.2-2V32.6c-0.1-1.6,0.3-3.2,1.2-4.5l-0.2-0.1c0,0-1,0.1-4.8,0.1H105v1c2.6,0.5,2.6,0.9,2.6,2.7v7.1l-0.4,0.4
			H94.5v-6.6c-0.1-1.6,0.3-3.2,1.2-4.5l-0.2-0.1c-1.6,0.1-3.2,0.2-4.8,0.1H88v1c2.6,0.5,2.6,0.9,2.6,2.7V49c0,1.3-0.9,2.2-2.5,2.4
			v1.2l9.4-0.2l0.1-1.1L94.3,51c0.1-0.7,0.2-1.3,0.2-2v-7.7l0.4-0.4h12.8v8.1c0,1.2-1,2.1-2.6,2.3v1.2l9.4-0.1h6.4l0.2-1.1l-3.1-0.4
			l2.3-6.1l0.5-0.4h8.3l2,5.4c0.4,1.1-0.5,1.4-1.5,1.4v1.3h8l0,0l9.5-0.2l0.1-1.1L144,51c0.1-0.6,0.2-1.2,0.2-1.9v-6.9l0.4-0.4h2.2
			l4.4,6.5c0.9,1.2,1.6,2.6,2.2,4l0.1,0.1h6.1l0.1-1.2h-0.4C158.5,51.2,157.8,51.1,156.3,48.9z M121.3,42.8l3.8-10
			c0.2,0.7,0.6,1.7,0.8,2.5l2.8,7.5L121.3,42.8z M147.2,40.2h-2.9V30.1l0.4-0.4h1.2c4,0,5.5,2.4,5.5,5.3
			C151.3,38.5,149.1,40.2,147.2,40.2L147.2,40.2z"/>
		<path class="st0" d="M171.6,50.9h-5c0.1-0.7,0.2-1.3,0.2-2V32.6c-0.1-1.6,0.4-3.2,1.3-4.5l-0.2-0.1c-1.6,0.1-3.2,0.2-4.8,0.1h-2.8
			v1c2.6,0.5,2.6,0.9,2.6,2.7v17.4c0,1.3-0.8,2.1-2.4,2.3v1.2c0,0,3.5-0.1,5.6-0.1H177l1.5-6.8h-1.3
			C175.3,49.6,174.6,50.9,171.6,50.9z"/>
		<path class="st0" d="M192.1,27.6c-8.9,0-13.6,6.5-13.6,13S183.1,53,191.1,53c7.4,0.1,13.5-5.8,13.7-13.2c0-0.1,0-0.2,0-0.4
			C204.7,33.1,200.2,27.6,192.1,27.6z M191.9,51.3c-5.8,0-9-6.2-9-11.7c0-5.3,3-10.4,8.5-10.4c5.8,0,8.9,5.7,8.9,11.1
			S197.3,51.3,191.9,51.3z"/>
		<path class="st0" d="M208.5,28.1c-0.8,0-1.6-0.1-2.5-0.2l-1.1,6.3h1.3c1.4-3.7,2.5-4.5,5-4.5h2.6V49c0,1.3-1,2.2-2.5,2.4v1.2
			l9.8-0.2l0.1-1.1l-3.7-0.3c0.1-0.7,0.2-1.3,0.2-2V30.1l0.4-0.4h2.6c2.8,0,4,0.7,3.9,4.5h1.3l1.1-6.3c-0.9,0.1-1.7,0.2-2.6,0.2
			H208.5z"/>
		<path class="st0" d="M231.1,28.1c-0.8,0-1.6-0.1-2.5-0.2l-1.1,6.3h1.3c1.4-3.7,2.5-4.5,5-4.5h2.6V49c0,1.3-0.9,2.2-2.5,2.4v1.2
			l9.8-0.2l0.1-1.1l-3.7-0.3c0.1-0.7,0.2-1.3,0.2-2V30.1l0.4-0.4h2.6c2.8,0,4,0.7,3.9,4.5h1.4l1.1-6.3c-0.9,0.1-1.8,0.2-2.6,0.2
			H231.1z"/>
		<path class="st0" d="M268.5,46.4c-1.8,3.8-2.3,4.4-5.4,4.4h-5.5c0.1-0.7,0.2-1.3,0.2-2v-7.6l0.4-0.4h6v2.8h1.8v-6.7l-1.4,0.2
			l-0.3,2.1h-6.5v-9.2l0.4-0.4h4.5c2.9,0,4.1,0.7,4,4.5h1.3l1.1-6.3c-0.9,0.1-1.8,0.1-2.7,0.1H251v1c2.7,0.5,2.9,0.9,2.9,2.7v17.4
			c0,1.3-1,2.1-2.5,2.3v1.2c0,0,3.6-0.1,5.7-0.1h11.5l1.4-6.1H268.5z"/>
	</g>
</g>
</svg>
