<?xml version="1.0" encoding="utf-8"?>
<!-- Generator: Adobe Illustrator 25.2.3, SVG Export Plug-In . SVG Version: 6.00 Build 0)  -->
<svg version="1.1" id="Layer_1" xmlns="http://www.w3.org/2000/svg" xmlns:xlink="http://www.w3.org/1999/xlink" x="0px" y="0px"
	 viewBox="0 0 361.8 334.9" style="enable-background:new 0 0 361.8 334.9;" xml:space="preserve">
<style type="text/css">
	.st0{fill:url(#SVGID_1_);}
	.st1{opacity:0.3;fill:#FFFFFF;stroke:#000000;stroke-miterlimit:10;enable-background:new    ;}
	.st2{opacity:0.6;fill:#FFFFFF;stroke:#000000;stroke-miterlimit:10;enable-background:new    ;}
</style>
<linearGradient id="SVGID_1_" gradientUnits="userSpaceOnUse" x1="27" y1="165.8562" x2="331.3988" y2="165.8562" gradientTransform="matrix(1 0 0 -1 0 336)">
	<stop  offset="0" style="stop-color:#FFFFFF"/>
	<stop  offset="1" style="stop-color:#000000"/>
</linearGradient>
<path class="st0" d="M220.1,35.1L220.1,35.1c-26.6-8.2-55.1-8.3-81.7,0H27l35.1,60.5c-38.4,64.8-17,148.4,47.6,186.7
	c4.4,2.7,9,5,13.7,7.1v22H235v-22.1c68.6-30.9,99.1-111.5,68.3-180.1c-2.1-4.6-4.4-9.1-7-13.5l30.1-51.8l4.7-8.1l0.4-0.6L220.1,35.1
	L220.1,35.1z M179.1,38.4c12.2,0,24.3,1.7,36,5.2l-0.2,0.3l-0.4,0.6l-4.7,8.2l-0.4,0.6l-4.7,8.2l-0.4,0.5l-4.8,8.2l-0.4,0.5
	l-4.8,8.2l-0.3,0.5l-4.8,8.2l-0.3,0.5l-4.8,8.2l-0.3,0.5l-4.8,8.2l-0.3,0.5l-0.3-0.5l-4.8-8.2l-0.3-0.5l-4.8-8.2l-0.3-0.5l-4.8-8.2
	l-0.4-0.5l-4.8-8.2l-0.4-0.5l-4.8-8.2l-0.4-0.5l-4.7-8.2l-0.4-0.6l-4.7-8.2l-0.4-0.6l-0.2-0.3C154.8,40.2,167,38.4,179.1,38.4z
	 M123.5,278.9c-62.9-30.8-88.9-106.7-58.1-169.5c0.7-1.4,1.4-2.8,2.1-4.2l30.4,52.6l0.2,0.4l20.1,34.6l0.2,0.3l4.9,8.4l0.1,0.2
	L123.5,278.9z M305.7,165.1c0,48.3-27.4,92.4-70.7,113.6v-77.2l55.8-96.2C300.7,123.7,305.8,144.3,305.7,165.1z M315.8,44.6
	l-4.7,8.2l-0.4,0.6l-4.7,8.2l-0.4,0.6l-4.8,8.2l-0.4,0.5l-4.8,8.2l-0.3,0.5l-4.6,8l-0.2,0.3l-0.3,0.5l-4.8,8.2l-0.1,0.2l-0.2,0.4
	l-4.8,8.2l-0.3,0.5l-4.8,8.2l-0.3,0.5l-4.9,8.3l-0.3,0.5l-4.9,8.3l-0.3,0.5l-4.9,8.3l-0.2,0.4l-4.9,8.3l-0.2,0.4l0,0l-4.9,8.4
	l-0.2,0.4l-4.9,8.4l-0.2,0.3l-4.9,8.4l-0.2,0.3l-4.9,8.4l-0.2,0.3l-4.9,8.4l-0.2,0.3l-4.7,8.3l-0.1,0.2v99.8h-91.4v-100h-0.1v-0.2
	l-4.9-8.3l-0.1-0.3l-4.9-8.4l-0.2-0.3l-4.9-8.4l-0.2-0.3l-4.9-8.4l-0.2-0.3l-4.9-8.4l-0.2-0.4l-4.9-8.4l0,0l-0.2-0.4l-4.9-8.4
	l-0.2-0.4l-4.9-8.3l-0.2-0.4l-4.9-8.3l-0.3-0.4l-4.9-8.3l-0.3-0.5l-4.8-8.2l-0.3-0.5l-4.8-8.2l-0.3-0.5l0,0l-4.8-8.2l-0.5-0.8
	l-4.6-7.9l-0.5-0.6l-4.8-8.2l-0.4-0.5l-4.7-8.2l-0.4-0.5l-4.7-8.2l-0.4-0.6l-4.7-8.2l-0.4-0.6h91.1l0.4,0.6l1.1,1.9l3.6,6.2
	l35.7,61.8l5,8.7l0.3-0.5l4.9-8.3L220,52.5l3.6-6.1l1.1-1.9l0.4-0.6h40.6l-0.4,0.6l-4.7,8.2l-0.4,0.6l-1,1.6l-3.8,6.4l-0.4,0.5
	l-0.7,1.2l-4,7l-0.4,0.5l-4.8,8.2l-0.4,0.5l0,0l-4.8,8.2l-0.3,0.5l-4.8,8.2l-0.3,0.5l0,0L230,105l-0.3,0.5l-4.8,8.2l-0.3,0.5
	l-4.9,8.3l-0.3,0.5l-4.9,8.3l-0.2,0.4l-4.9,8.3l-0.2,0.4l-4.9,8.3l-0.2,0.4l-4.8,8.6l-0.2,0.4l5,8.7l0.2-0.3l4.9-8.4l51.8-89.3
	l4.9-8.3l4.5-7.7l4.7-8.2l0.4-0.6h40.5L315.8,44.6z"/>
<path class="st1" d="M305.7,165.1c0,48.3-27.4,92.4-70.7,113.6v-77.2l55.8-96.2C300.7,123.7,305.8,144.3,305.7,165.1z"/>
<path class="st1" d="M123.5,201.7v77.2c-62.9-30.8-88.9-106.7-58.1-169.5c0.7-1.4,1.4-2.8,2.1-4.2l30.4,52.6l0.2,0.4l20.1,34.6
	l0.2,0.3l4.9,8.4L123.5,201.7z"/>
<path class="st1" d="M215.1,43.6l-0.2,0.3l-0.4,0.6l-4.7,8.2l-0.4,0.6l-4.7,8.2l-0.4,0.5l-4.8,8.2l-0.4,0.5l-4.8,8.2l-0.3,0.5
	l-4.8,8.2l-0.3,0.5l-4.8,8.2l-0.3,0.5l-4.8,8.2l-0.3,0.5l-0.3-0.5l-4.8-8.2l-0.3-0.5l-4.8-8.2l-0.3-0.5l-4.8-8.2l-0.4-0.5l-4.8-8.2
	l-0.4-0.5l-4.8-8.2l-0.4-0.5l-4.7-8.2l-0.4-0.6l-4.7-8.2l-0.4-0.6l-0.2-0.3C166.6,36.7,191.7,36.7,215.1,43.6L215.1,43.6z"/>
<polygon class="st2" points="316.2,43.9 315.8,44.6 311.1,52.7 310.8,53.3 306,61.4 305.7,62.1 301,70.2 300.6,70.8 295.9,78.9 
	295.6,79.5 291,87.4 290.8,87.7 290.5,88.3 285.8,96.5 285.7,96.6 285.5,97 280.7,105.2 280.4,105.7 275.6,114 275.3,114.5 
	270.6,122.7 270.3,123.2 265.5,131.5 265.2,131.9 260.4,140.2 260.2,140.7 255.3,149 255.2,149.4 255.2,149.4 250.2,157.8 
	250,158.1 245.2,166.5 245,166.8 240.1,175.3 240,175.6 235,184 234.8,184.3 230,192.8 229.8,193 225.1,201.3 225,201.5 225,301.3 
	133.5,301.3 133.5,201.5 133.4,201.5 133.4,201.3 128.6,193 128.4,192.8 123.5,184.3 123.4,184 118.4,175.6 118.3,175.3 
	113.4,166.8 113.2,166.5 108.4,158.1 108.2,157.8 103.2,149.4 103.2,149.4 103.1,149 98.2,140.6 98,140.2 93.2,131.9 93,131.5 
	88.1,123.2 87.8,122.7 83.1,114.5 82.8,114 77.9,105.7 77.7,105.2 72.9,97 72.6,96.5 72.6,96.5 67.9,88.3 67.3,87.3 62.8,79.5 
	62.5,78.9 57.7,70.8 57.4,70.2 52.7,62.1 52.3,61.4 47.6,53.3 47.3,52.7 42.6,44.6 42.2,43.9 133.3,43.9 133.7,44.6 134.8,46.5 
	138.3,52.7 174.2,114.5 179.2,123.2 179.5,122.7 184.2,114.5 220.1,52.7 223.6,46.5 224.7,44.6 225.1,43.9 265.6,43.9 265.2,44.6 
	260.5,52.7 260.2,53.3 259.2,55 255.4,61.4 255.1,62.1 254.4,63.3 250.4,70.2 250,70.8 245.3,78.9 245,79.5 245,79.5 240.2,87.7 
	240,88.3 235.2,96.5 234.8,97 234.8,97 230.1,105.2 229.8,105.7 225,114 224.7,114.5 220,122.7 219.7,123.2 214.8,131.5 
	214.7,131.9 209.8,140.2 209.5,140.6 204.7,149 204.5,149.4 199.6,157.8 199.4,158.1 204.5,166.8 204.7,166.5 209.5,158.1 
	261.3,68.7 266.2,60.4 270.6,52.7 275.3,44.6 275.7,43.9 "/>
</svg>
